# xmcd
#
# Track frame offsets:
#	150
#	13859
#	30735
#	49736
#	64262
#	80688
#	106639
#	119390
#	136266
#	151530
#	165894
#	184658
#	205384
#	231897
#	242048
#	254624
#	275325
#	289876
#	303902
#
# Disc length: 4329 seconds
#
# Revision: 0
# Processed by: cddbd v1.4PL0 Copyright (c) Steve Scherf et al.
# Submitted via: EasyCDDAExtractor 4.6.0.1
#
DISCID=0010e713
DTITLE=Reverend Gary Davis - I Am The True Vine
DYEAR=1900
DGENRE=Blues
TTITLE0=I Am The True Vine
TTITLE1=Lord, Stand By Me
TTITLE2=Won't You Hush
TTITLE3=Mean Old World
TTITLE4=Moon Is Going Down
TTITLE5=Sportin' Life Blues
TTITLE6=God's Gonna Separate
TTITLE7=Soon My Work Will All Be Done
TTITLE8=Blow Gabriel
TTITLE9=Get Right Church
TTITLE10=I Want To Be Saved
TTITLE11=Oh Glory, How Happy I Am
TTITLE12=There's Destruction In That Land (Message From Heaven)
TTITLE13=Tired, My Soul Needs Resting
TTITLE14=Georgia Camp Meeting
TTITLE15=Bill Bailey
TTITLE16=Honey Get Your Towel Wet
TTITLE17=She Wouldn't Say Quit
TTITLE18=You're Going To Quit Me Baby
EXTD=
EXTT0=
EXTT1=
EXTT2=
EXTT3=
EXTT4=
EXTT5=
EXTT6=
EXTT7=
EXTT8=
EXTT9=
EXTT10=
EXTT11=
EXTT12=
EXTT13=
EXTT14=
EXTT15=
EXTT16=
EXTT17=
EXTT18=
PLAYORDER=
